<?xml version="1.0" encoding="utf-8"?>
<!-- Generator: Adobe Illustrator 27.5.0, SVG Export Plug-In . SVG Version: 6.00 Build 0)  -->
<svg version="1.1" xmlns="http://www.w3.org/2000/svg" xmlns:xlink="http://www.w3.org/1999/xlink" x="0px" y="0px"
	 viewBox="0 0 500 500" style="enable-background:new 0 0 500 500;" xml:space="preserve">
<g id="BACKGROUND">
	<rect style="fill:#FFFFFF;" width="500" height="500"/>
</g>
<g id="OBJETCS">
	<g>
		<circle style="fill:#F1F2F6;" cx="239" cy="257" r="156"/>
		<g>
			<path style="fill:#DFE4EA;" d="M110.86,230.448c0.355-2.396,0.313-4.795-0.094-7.11l5.037-2.26l-4.081-9.092l-4.821,2.163
				c-1.505-2.096-3.38-3.949-5.582-5.437l1.986-5.221l-9.312-3.542l-1.957,5.14c-2.67-0.397-5.34-0.297-7.901,0.249l-2.292-5.111
				l-9.089,4.081l2.341,5.218c-1.834,1.417-3.458,3.129-4.795,5.101l-5.221-1.986l-3.542,9.315l5.14,1.953
				c-0.329,2.215-0.316,4.43,0.007,6.577l-5.641,2.535l4.081,9.089l5.208-2.338c1.55,2.276,3.532,4.285,5.883,5.876l-1.986,5.221
				l9.315,3.542l1.957-5.14c2.851,0.423,5.705,0.281,8.417-0.365l2.25,5.011l9.092-4.081l-2.396-5.337
				c1.66-1.35,3.138-2.948,4.372-4.769l5.221,1.986l3.542-9.312L110.86,230.448z M99.385,231.281
				c-2.244,5.905-8.853,8.872-14.758,6.625c-5.905-2.244-8.873-8.853-6.629-14.758c2.247-5.905,8.856-8.872,14.762-6.625
				C98.665,218.766,101.632,225.376,99.385,231.281z"/>
			<path style="fill:#DFE4EA;" d="M424.486,167.506c0.381-2.57,0.336-5.144-0.1-7.627l5.403-2.425l-4.378-9.754l-5.171,2.321
				c-1.614-2.248-3.627-4.236-5.989-5.833l2.13-5.601l-9.989-3.8l-2.099,5.514c-2.865-0.426-5.729-0.319-8.476,0.267l-2.459-5.483
				l-9.75,4.378l2.511,5.597c-1.967,1.521-3.71,3.356-5.144,5.473l-5.601-2.13l-3.8,9.993l5.514,2.096
				c-0.353,2.376-0.339,4.752,0.007,7.056l-6.051,2.719l4.378,9.75l5.587-2.508c1.663,2.442,3.789,4.596,6.311,6.304l-2.13,5.601
				l9.993,3.8l2.099-5.514c3.058,0.454,6.12,0.301,9.03-0.391l2.414,5.376l9.754-4.378l-2.57-5.725
				c1.78-1.448,3.367-3.162,4.69-5.116l5.601,2.13l3.8-9.989L424.486,167.506z M412.176,168.4
				c-2.407,6.335-9.497,9.518-15.833,7.108c-6.335-2.407-9.518-9.497-7.111-15.833c2.411-6.335,9.501-9.518,15.836-7.107
				C411.403,154.974,414.586,162.064,412.176,168.4z"/>
			<circle style="fill:#7BED9F;" cx="99" cy="135" r="45.5"/>
			<path style="fill:none;stroke:#222F3E;stroke-miterlimit:10;" d="M145,134.5c0,25.129-20.371,45.5-45.5,45.5S54,159.629,54,134.5
				"/>
			<polyline style="fill:none;stroke:#222F3E;stroke-miterlimit:10;" points="99,98.872 99,135 121.5,150.5 			"/>
			<g>
				<polygon style="fill:#7BED9F;" points="195,193 195,229 176.78,216 125,216 125,193 				"/>
				<path style="fill:none;stroke:#222F3E;stroke-miterlimit:10;" d="M139.504,203.831c0,2.57-2.083,4.654-4.654,4.654
					c-2.57,0-4.654-2.083-4.654-4.654s2.083-4.654,4.654-4.654C137.42,199.178,139.504,201.261,139.504,203.831z"/>
				<path style="fill:none;stroke:#222F3E;stroke-miterlimit:10;" d="M182.316,204.452c0,2.57-2.083,4.654-4.654,4.654
					c-2.57,0-4.654-2.083-4.654-4.654s2.083-4.654,4.654-4.654C180.233,199.798,182.316,201.882,182.316,204.452z"/>
				<path style="fill:none;stroke:#222F3E;stroke-miterlimit:10;" d="M160.6,203.831c0,2.57-2.083,4.654-4.654,4.654
					c-2.57,0-4.653-2.083-4.653-4.654s2.083-4.654,4.653-4.654C158.516,199.178,160.6,201.261,160.6,203.831z"/>
			</g>
			<g>
				<polygon style="fill:#7BED9F;" points="354,91 354,168 330.18,151 254,151 254,91 				"/>
				<rect x="264.5" y="101.5" style="fill:none;stroke:#222F3E;stroke-miterlimit:10;" width="82" height="5"/>
				<rect x="264.5" y="114.5" style="fill:none;stroke:#222F3E;stroke-miterlimit:10;" width="82" height="5"/>
				<rect x="264.5" y="127.5" style="fill:none;stroke:#222F3E;stroke-miterlimit:10;" width="82" height="5"/>
				<polyline style="fill:none;stroke:#222F3E;stroke-miterlimit:10;" points="254,131 254,91 354,91 354,120.5 				"/>
			</g>
			<g>
				<g>
					<path style="fill:#7BED9F;" d="M329.84,196.732c0-3.14-2.268-4.361-4.884-4.361c-2.965,0-4.884,1.57-7.152,3.663l-8.199-7.501
						c4.274-4.884,10.292-8.198,17.27-8.198c9.594,0,17.27,4.361,17.27,15.351c0,10.466-12.734,13.257-11.862,22.852H319.2
						C317.455,207.198,329.84,202.314,329.84,196.732z M316.932,231.794c0-5.059,3.663-9.07,8.722-9.07
						c5.059,0,8.722,4.012,8.722,9.07c0,5.059-3.663,9.071-8.722,9.071C320.595,240.865,316.932,236.853,316.932,231.794z"/>
				</g>
				<path style="fill:none;stroke:#222F3E;stroke-miterlimit:10;" d="M325.563,222.537c5.109,0,9.25,4.141,9.25,9.25
					c0,5.109-4.141,9.25-9.25,9.25c-5.109,0-9.25-4.141-9.25-9.25"/>
			</g>
			<g>
				<g>
					<path style="fill:#7BED9F;" d="M198.386,153h6.518c-0.435,4.78,5.91,6.171,5.91,11.385c0,5.475-3.824,7.648-8.604,7.648
						c-3.476,0-6.475-1.651-8.604-4.085l4.085-3.737c1.13,1.043,2.086,1.825,3.563,1.825c1.304,0,2.433-0.608,2.433-2.173
						C203.687,161.083,197.516,158.649,198.386,153z M201.601,141.876c2.521,0,4.346,1.999,4.346,4.52
						c0,2.52-1.825,4.519-4.346,4.519c-2.52,0-4.345-1.999-4.345-4.519C197.256,143.875,199.081,141.876,201.601,141.876z"/>
				</g>
				<path style="fill:none;stroke:#222F3E;stroke-miterlimit:10;" d="M201.556,151.007c2.545,0,4.609-2.063,4.609-4.609
					c0-2.545-2.063-4.609-4.609-4.609s-4.608,2.063-4.608,4.609"/>
			</g>
			<polyline style="fill:none;stroke:#222F3E;stroke-miterlimit:10;" points="124.8,215 124.8,192.66 186.84,192.66 			"/>
		</g>
		<g>
			<circle style="fill:#DFE4EA;" cx="160.5" cy="86.5" r="3.5"/>
			<circle style="fill:#DFE4EA;" cx="172.5" cy="86.5" r="3.5"/>
			<circle style="fill:#DFE4EA;" cx="184.5" cy="86.5" r="3.5"/>
			<circle style="fill:#DFE4EA;" cx="196.5" cy="86.5" r="3.5"/>
			<circle style="fill:#DFE4EA;" cx="208.5" cy="86.5" r="3.5"/>
			<circle style="fill:#DFE4EA;" cx="220.5" cy="86.5" r="3.5"/>
			<circle style="fill:#DFE4EA;" cx="160.5" cy="98.5" r="3.5"/>
			<circle style="fill:#DFE4EA;" cx="172.5" cy="98.5" r="3.5"/>
			<circle style="fill:#DFE4EA;" cx="184.5" cy="98.5" r="3.5"/>
			<circle style="fill:#DFE4EA;" cx="196.5" cy="98.5" r="3.5"/>
			<circle style="fill:#DFE4EA;" cx="208.5" cy="98.5" r="3.5"/>
			<circle style="fill:#DFE4EA;" cx="220.5" cy="98.5" r="3.5"/>
			<circle style="fill:#DFE4EA;" cx="160.5" cy="110.5" r="3.5"/>
			<circle style="fill:#DFE4EA;" cx="172.5" cy="110.5" r="3.5"/>
			<circle style="fill:#DFE4EA;" cx="184.5" cy="110.5" r="3.5"/>
			<circle style="fill:#DFE4EA;" cx="196.5" cy="110.5" r="3.5"/>
			<circle style="fill:#DFE4EA;" cx="160.5" cy="134.5" r="3.5"/>
			<circle style="fill:#DFE4EA;" cx="172.5" cy="134.5" r="3.5"/>
			<circle style="fill:#DFE4EA;" cx="184.5" cy="134.5" r="3.5"/>
			<circle style="fill:#DFE4EA;" cx="196.5" cy="134.5" r="3.5"/>
			<circle style="fill:#DFE4EA;" cx="208.5" cy="110.5" r="3.5"/>
			<circle style="fill:#DFE4EA;" cx="220.5" cy="110.5" r="3.5"/>
			<circle style="fill:#DFE4EA;" cx="232.5" cy="86.5" r="3.5"/>
			<circle style="fill:#DFE4EA;" cx="160.5" cy="122.5" r="3.5"/>
			<circle style="fill:#DFE4EA;" cx="172.5" cy="122.5" r="3.5"/>
			<circle style="fill:#DFE4EA;" cx="184.5" cy="122.5" r="3.5"/>
			<circle style="fill:#DFE4EA;" cx="196.5" cy="122.5" r="3.5"/>
			<circle style="fill:#DFE4EA;" cx="208.5" cy="122.5" r="3.5"/>
			<circle style="fill:#DFE4EA;" cx="220.5" cy="122.5" r="3.5"/>
			<circle style="fill:#DFE4EA;" cx="232.5" cy="122.5" r="3.5"/>
			<circle style="fill:#DFE4EA;" cx="244.5" cy="86.5" r="3.5"/>
		</g>
		<g>
			<circle style="fill:#DFE4EA;" cx="344.482" cy="249.768" r="3.482"/>
			<path style="fill:#DFE4EA;" d="M359.901,249.768c0,1.923-1.559,3.482-3.482,3.482c-1.923,0-3.482-1.559-3.482-3.482
				s1.559-3.482,3.482-3.482C358.342,246.286,359.901,247.844,359.901,249.768z"/>
			<circle style="fill:#DFE4EA;" cx="368.357" cy="249.768" r="3.482"/>
			<circle style="fill:#DFE4EA;" cx="380.295" cy="249.768" r="3.482"/>
			<circle style="fill:#DFE4EA;" cx="392.232" cy="249.768" r="3.482"/>
			<path style="fill:#DFE4EA;" d="M407.652,249.768c0,1.923-1.559,3.482-3.482,3.482c-1.923,0-3.482-1.559-3.482-3.482
				s1.559-3.482,3.482-3.482C406.093,246.286,407.652,247.844,407.652,249.768z"/>
			<circle style="fill:#DFE4EA;" cx="344.482" cy="261.705" r="3.482"/>
			<path style="fill:#DFE4EA;" d="M359.901,261.705c0,1.923-1.559,3.482-3.482,3.482c-1.923,0-3.482-1.559-3.482-3.482
				s1.559-3.482,3.482-3.482C358.342,258.223,359.901,259.782,359.901,261.705z"/>
			<circle style="fill:#DFE4EA;" cx="368.357" cy="261.705" r="3.482"/>
			<circle style="fill:#DFE4EA;" cx="380.295" cy="261.705" r="3.482"/>
			<circle style="fill:#DFE4EA;" cx="392.232" cy="261.705" r="3.482"/>
			<path style="fill:#DFE4EA;" d="M407.652,261.705c0,1.923-1.559,3.482-3.482,3.482c-1.923,0-3.482-1.559-3.482-3.482
				s1.559-3.482,3.482-3.482C406.093,258.223,407.652,259.782,407.652,261.705z"/>
			<circle style="fill:#DFE4EA;" cx="344.482" cy="273.643" r="3.482"/>
			<path style="fill:#DFE4EA;" d="M359.901,273.643c0,1.923-1.559,3.482-3.482,3.482c-1.923,0-3.482-1.559-3.482-3.482
				c0-1.923,1.559-3.482,3.482-3.482C358.342,270.161,359.901,271.72,359.901,273.643z"/>
			<circle style="fill:#DFE4EA;" cx="368.357" cy="273.643" r="3.482"/>
			<circle style="fill:#DFE4EA;" cx="380.295" cy="273.643" r="3.482"/>
			<circle style="fill:#DFE4EA;" cx="344.482" cy="297.518" r="3.482"/>
			<path style="fill:#DFE4EA;" d="M359.901,297.518c0,1.923-1.559,3.482-3.482,3.482c-1.923,0-3.482-1.559-3.482-3.482
				c0-1.923,1.559-3.482,3.482-3.482C358.342,294.036,359.901,295.595,359.901,297.518z"/>
			<circle style="fill:#DFE4EA;" cx="368.357" cy="297.518" r="3.482"/>
			<circle style="fill:#DFE4EA;" cx="380.295" cy="297.518" r="3.482"/>
			<circle style="fill:#DFE4EA;" cx="392.232" cy="273.643" r="3.482"/>
			<path style="fill:#DFE4EA;" d="M407.652,273.643c0,1.923-1.559,3.482-3.482,3.482c-1.923,0-3.482-1.559-3.482-3.482
				c0-1.923,1.559-3.482,3.482-3.482C406.093,270.161,407.652,271.72,407.652,273.643z"/>
			<path style="fill:#DFE4EA;" d="M419.59,249.768c0,1.923-1.559,3.482-3.482,3.482c-1.923,0-3.482-1.559-3.482-3.482
				s1.559-3.482,3.482-3.482C418.031,246.286,419.59,247.844,419.59,249.768z"/>
			<circle style="fill:#DFE4EA;" cx="344.482" cy="285.581" r="3.482"/>
			<path style="fill:#DFE4EA;" d="M359.901,285.581c0,1.923-1.559,3.482-3.482,3.482c-1.923,0-3.482-1.559-3.482-3.482
				s1.559-3.482,3.482-3.482C358.342,282.099,359.901,283.658,359.901,285.581z"/>
			<circle style="fill:#DFE4EA;" cx="368.357" cy="285.581" r="3.482"/>
			<circle style="fill:#DFE4EA;" cx="380.295" cy="285.581" r="3.482"/>
			<circle style="fill:#DFE4EA;" cx="392.232" cy="285.581" r="3.482"/>
			<path style="fill:#DFE4EA;" d="M407.652,285.581c0,1.923-1.559,3.482-3.482,3.482c-1.923,0-3.482-1.559-3.482-3.482
				s1.559-3.482,3.482-3.482C406.093,282.099,407.652,283.658,407.652,285.581z"/>
			<path style="fill:#DFE4EA;" d="M419.59,285.581c0,1.923-1.559,3.482-3.482,3.482c-1.923,0-3.482-1.559-3.482-3.482
				s1.559-3.482,3.482-3.482C418.031,282.099,419.59,283.658,419.59,285.581z"/>
			<path style="fill:#DFE4EA;" d="M431.527,249.768c0,1.923-1.559,3.482-3.482,3.482c-1.923,0-3.482-1.559-3.482-3.482
				s1.559-3.482,3.482-3.482C429.968,246.286,431.527,247.844,431.527,249.768z"/>
		</g>
	</g>
	<g>
		<path style="fill:#222F3E;" d="M265.5,412.5h-111V298c0-30.652,24.848-55.5,55.5-55.5h0c30.652,0,55.5,24.848,55.5,55.5V412.5z"/>
		<g>
			<g>
				<path style="fill:#FF4757;" d="M215.863,263.446h63.649v-31.29c0-19.375-14.248-35.081-31.825-35.081l0,0
					c-17.576,0-31.825,15.706-31.825,35.081V263.446z"/>
				
					<rect x="244.335" y="250.983" transform="matrix(-1 -1.224647e-16 1.224647e-16 -1 515.5115 532.3864)" style="fill:#F9B1A5;" width="26.842" height="30.421"/>
				<path style="fill:#F78A74;" d="M271.177,250.983v17.463c-2.62,0.102-8.586,0.059-14.977-2.574
					c-7.197-2.966-10.658-7.456-11.865-9.219c0-1.89,0-3.779,0-5.669H271.177z"/>
				<path style="fill:#F9B1A5;" d="M236.876,240.566c4.519,15.027,17.261,24.479,28.46,21.112
					c11.199-3.368,16.615-18.28,12.096-33.307c-4.519-15.028-17.261-24.48-28.46-21.112
					C237.773,210.626,232.358,225.538,236.876,240.566z"/>
				<path style="fill:#F9B1A5;" d="M224.69,246.49c-3.593-4.603-3.77-10.471-0.394-13.106c3.376-2.636,9.025-1.041,12.619,3.562
					c3.593,4.603,3.77,10.471,0.394,13.106C233.933,252.687,228.283,251.092,224.69,246.49z"/>
				<g>
					<g>
						<g>
							<path style="fill:none;stroke:#222F3E;stroke-width:0.25;stroke-miterlimit:10;" d="M270.133,231.771
								c-0.181-0.128-1.925-1.313-4.065-0.603c-2.152,0.715-2.838,2.726-2.905,2.934"/>
						</g>
						<path style="fill:#222F3E;" d="M265.165,232.643c0.213,0.639,0.904,0.983,1.543,0.77c0.638-0.214,0.983-0.904,0.77-1.543
							c-0.213-0.639-0.904-0.984-1.543-0.77C265.296,231.313,264.952,232.004,265.165,232.643z"/>
					</g>
					<g>
						<g>
							<path style="fill:none;stroke:#222F3E;stroke-width:0.25;stroke-miterlimit:10;" d="M252.35,237.718
								c-0.181-0.128-1.925-1.313-4.065-0.603c-2.153,0.714-2.838,2.726-2.905,2.933"/>
						</g>
						<path style="fill:#222F3E;" d="M247.382,238.589c0.214,0.639,0.905,0.983,1.543,0.77c0.639-0.214,0.983-0.905,0.77-1.543
							c-0.214-0.639-0.904-0.984-1.543-0.77C247.513,237.26,247.168,237.951,247.382,238.589z"/>
					</g>
					<polygon style="fill:#EE5253;" points="256.464,231.919 263.137,244.018 257.57,245.692 					"/>
					<g>
						<path style="fill:#1DD1A1;" d="M260.377,227.946l9.934-2.897c0.686-0.2,1.079-0.918,0.88-1.604l0,0
							c-0.2-0.686-0.918-1.08-1.604-0.879l-9.934,2.897c-0.686,0.2-1.079,0.918-0.879,1.604l0,0
							C258.973,227.752,259.691,228.146,260.377,227.946z"/>
						<g>
							<g>
								<g>
									<path style="fill:#3A3A37;" d="M260.813,227.834c-0.128-1.311,0.264-2.64,1.092-3.666c0.06-0.074-0.045-0.181-0.106-0.106
										c-0.853,1.056-1.268,2.42-1.136,3.772C260.672,227.929,260.822,227.93,260.813,227.834L260.813,227.834z"/>
								</g>
							</g>
							<g>
								<g>
									<path style="fill:#3A3A37;" d="M263.749,223.884c-0.76,0.802-0.765,1.951-0.742,2.986c0.002,0.096,0.152,0.097,0.15,0
										c-0.022-0.992-0.031-2.11,0.698-2.88C263.921,223.92,263.815,223.813,263.749,223.884L263.749,223.884z"/>
								</g>
							</g>
							<g>
								<g>
									<path style="fill:#3A3A37;" d="M266.424,222.906c-0.252,0.074-0.364,0.331-0.476,0.546
										c-0.155,0.299-0.293,0.606-0.413,0.921c-0.248,0.646-0.418,1.319-0.511,2.004c-0.013,0.094,0.132,0.135,0.145,0.04
										c0.082-0.603,0.223-1.197,0.426-1.772c0.104-0.296,0.224-0.585,0.359-0.868c0.109-0.227,0.247-0.649,0.51-0.727
										C266.556,223.023,266.517,222.879,266.424,222.906L266.424,222.906z"/>
								</g>
							</g>
							<g>
								<g>
									<path style="fill:#3A3A37;" d="M268.094,223.151c-0.648,0.754-0.857,1.746-1.04,2.697c-0.018,0.094,0.126,0.135,0.145,0.04
										c0.178-0.921,0.373-1.898,1.002-2.63C268.262,223.184,268.157,223.077,268.094,223.151L268.094,223.151z"/>
								</g>
							</g>
							<g>
								<g>
									<path style="fill:#3A3A37;" d="M270.472,222.705c-0.397,0.754-0.679,1.563-0.835,2.4c-0.018,0.094,0.127,0.135,0.145,0.04
										c0.154-0.825,0.429-1.622,0.82-2.364C270.647,222.695,270.517,222.619,270.472,222.705L270.472,222.705z"/>
								</g>
							</g>
							<g>
								<g>
									<path style="fill:#3A3A37;" d="M259.434,224.521c-0.372,1.099-0.356,2.303,0.045,3.391c0.033,0.09,0.178,0.051,0.145-0.04
										c-0.393-1.066-0.409-2.235-0.045-3.311C259.609,224.469,259.464,224.43,259.434,224.521L259.434,224.521z"/>
								</g>
							</g>
						</g>
					</g>
					<path style="fill:#1DD1A1;" d="M249.43,231.238l-9.884,3.062c-0.682,0.211-1.407-0.17-1.618-0.853l0,0
						c-0.211-0.682,0.17-1.407,0.853-1.618l9.884-3.062c0.682-0.211,1.407,0.171,1.618,0.853l0,0
						C250.495,230.302,250.113,231.026,249.43,231.238z"/>
					<g>
						<g>
							<g>
								<path style="fill:#3A3A37;" d="M249.132,231.305c-0.632-1.198-1.734-2.115-3.025-2.522c-0.092-0.029-0.132,0.116-0.04,0.145
									c1.256,0.396,2.322,1.289,2.935,2.453C249.047,231.467,249.177,231.391,249.132,231.305L249.132,231.305z"/>
							</g>
						</g>
						<g>
							<g>
								<path style="fill:#3A3A37;" d="M244.343,229.854c1.034,0.237,1.645,1.176,2.174,2.015c0.051,0.081,0.181,0.006,0.13-0.076
									c-0.55-0.872-1.19-1.838-2.264-2.084C244.289,229.688,244.249,229.833,244.343,229.854L244.343,229.854z"/>
							</g>
						</g>
						<g>
							<g>
								<path style="fill:#3A3A37;" d="M241.65,230.512c0.182-0.054,0.352,0.055,0.507,0.139c0.128,0.069,0.254,0.142,0.378,0.217
									c0.255,0.156,0.503,0.324,0.741,0.505c0.478,0.363,0.917,0.776,1.312,1.228c0.064,0.073,0.169-0.034,0.106-0.106
									c-0.427-0.487-0.904-0.927-1.424-1.313c-0.261-0.193-0.532-0.372-0.813-0.535c-0.244-0.142-0.549-0.368-0.846-0.28
									C241.518,230.395,241.557,230.54,241.65,230.512L241.65,230.512z"/>
							</g>
						</g>
						<g>
							<g>
								<path style="fill:#3A3A37;" d="M240.314,231.639c0.93,0.263,1.631,0.969,2.288,1.639c0.068,0.069,0.174-0.037,0.106-0.106
									c-0.676-0.69-1.399-1.407-2.355-1.678C240.261,231.468,240.221,231.613,240.314,231.639L240.314,231.639z"/>
							</g>
						</g>
						<g>
							<g>
								<path style="fill:#3A3A37;" d="M238.048,232.566c0.736,0.403,1.406,0.915,1.989,1.519c0.067,0.07,0.173-0.036,0.106-0.106
									c-0.591-0.613-1.273-1.134-2.02-1.543C238.039,232.39,237.963,232.52,238.048,232.566L238.048,232.566z"/>
							</g>
						</g>
						<g>
							<g>
								<path style="fill:#3A3A37;" d="M248.226,227.97c0.897,0.694,1.534,1.682,1.792,2.787c0.022,0.094,0.167,0.054,0.145-0.04
									c-0.263-1.127-0.915-2.145-1.83-2.853C248.257,227.806,248.15,227.911,248.226,227.97L248.226,227.97z"/>
							</g>
						</g>
					</g>
					<path style="fill:#EE5253;" d="M239.957,250.695c0.757,2.516,3.599,3.886,6.348,3.06c2.749-0.827,4.364-3.537,3.607-6.053
						c-0.757-2.516-3.599-3.887-6.348-3.06C240.815,245.469,239.2,248.179,239.957,250.695z"/>
					<path style="fill:#EE5253;" d="M269.822,241.715c0.757,2.516,3.599,3.886,6.348,3.06c2.749-0.827,4.364-3.537,3.607-6.053
						c-0.757-2.516-3.599-3.886-6.348-3.06C270.68,236.488,269.065,239.198,269.822,241.715z"/>
					<path style="fill:#FFFFFF;" d="M262.697,253.399L262.697,253.399c-3.406,1.024-6.996-0.907-8.02-4.312l-0.206-0.685
						l12.333-3.708l0.206,0.685C268.033,248.784,266.102,252.375,262.697,253.399z"/>
				</g>
				<path style="fill:#FF4757;" d="M243.589,220.009h25.858c-0.65-8.95-6.183-15.951-12.929-15.951
					C249.772,204.058,244.239,211.059,243.589,220.009z"/>
			</g>
			<g>
				<g>
					<path style="fill:#F9B1A5;" d="M175.26,411.995L175.26,411.995c7.195-2.819,10.742-10.937,7.922-18.132l-42.85-109.351
						c-2.819-7.195-10.937-10.741-18.132-7.922l0,0c-7.195,2.819-10.742,10.937-7.922,18.132l42.85,109.351
						C159.947,411.267,168.065,414.814,175.26,411.995z"/>
					<g>
						<g>
							<g>
								<path style="fill:#F9B1A5;" d="M135.993,293.175L135.993,293.175c5.055-6.573,3.825-15.999-2.747-21.055l-13.885-10.679
									l-18.307,23.802l13.885,10.679C121.511,300.977,130.938,299.747,135.993,293.175z"/>
								<path style="fill:#F9B1A5;" d="M123.941,269.478L123.941,269.478c1.293-1.657,0.998-4.049-0.659-5.342l-21.775-16.995
									c-1.657-1.293-4.049-0.998-5.342,0.659l0,0c-1.293,1.657-0.998,4.049,0.659,5.342l21.775,16.995
									C120.255,271.431,122.647,271.135,123.941,269.478z"/>
								<path style="fill:#F9B1A5;" d="M134.276,280.71L134.276,280.71c1.949-0.788,2.889-3.007,2.101-4.956l-9.743-24.079
									c-0.788-1.949-3.007-2.889-4.956-2.101l0,0c-1.949,0.788-2.889,3.007-2.101,4.956l9.743,24.079
									C130.108,280.558,132.327,281.499,134.276,280.71z"/>
								<path style="fill:#F9B1A5;" d="M118.897,275.941L118.897,275.941c1.293-1.657,0.998-4.049-0.659-5.342l-25.743-20.091
									c-1.657-1.293-4.049-0.998-5.342,0.659l0,0c-1.293,1.657-0.998,4.049,0.659,5.342l25.743,20.092
									C115.211,277.893,117.603,277.598,118.897,275.941z"/>
								<path style="fill:#F9B1A5;" d="M113.853,282.404L113.853,282.404c1.293-1.657,0.998-4.049-0.659-5.342l-21.775-16.995
									c-1.657-1.293-4.049-0.998-5.342,0.659l0,0c-1.293,1.657-0.998,4.049,0.659,5.342l21.775,16.995
									C110.167,284.356,112.559,284.061,113.853,282.404z"/>
								<path style="fill:#F9B1A5;" d="M109.349,288.174L109.349,288.174c0.995-1.275,0.768-3.115-0.507-4.11l-15.621-12.191
									c-1.275-0.995-3.115-0.768-4.11,0.507l0,0c-0.995,1.275-0.768,3.115,0.507,4.109l15.621,12.191
									C106.514,289.676,108.354,289.449,109.349,288.174z"/>
							</g>
							<path style="fill:none;stroke:#FFFFFF;stroke-width:0.5;stroke-miterlimit:10;" d="M124.866,271.959
								c-0.69,1.062-3.212,5.213-2.355,10.7c0.602,3.857,2.574,6.447,3.527,7.55"/>
							
								<line style="fill:none;stroke:#FFFFFF;stroke-width:0.5;stroke-miterlimit:10;" x1="112.181" y1="290.176" x2="118.94" y2="273.87"/>
						</g>
						<path style="fill:none;stroke:#F99180;stroke-width:0.25;stroke-miterlimit:10;" d="M101.054,285.243l13.885,10.679
							c6.573,5.055,15.999,3.825,21.055-2.747"/>
					</g>
				</g>
				<path style="fill:#F9B1A5;" d="M166.5,411.897L166.5,411.897c7.439,2.092,15.165-2.243,17.257-9.681l26.272-93.424
					c2.092-7.439-2.243-15.165-9.682-17.257l0,0c-7.439-2.092-15.165,2.243-17.257,9.681l-26.272,93.425
					C154.727,402.079,159.061,409.805,166.5,411.897z"/>
				<path style="fill:#FFFFFF;" d="M207.711,358.816l-45.225-16.085l17.761-49.936c4.442-12.488,18.167-19.011,30.655-14.57h0
					c12.488,4.442,19.011,18.167,14.57,30.655L207.711,358.816z"/>
			</g>
			<g>
				<g>
					<path style="fill:#F9B1A5;" d="M353.337,404.373L353.337,404.373c-7.501-1.858-12.075-9.444-10.217-16.945l28.236-114.002
						c1.858-7.501,9.444-12.075,16.945-10.217h0c7.501,1.858,12.075,9.444,10.217,16.945l-28.236,114.002
						C368.424,401.656,360.838,406.231,353.337,404.373z"/>
					<g>
						<g>
							<g>
								<path style="fill:#F9B1A5;" d="M376.786,281.45L376.786,281.45c-5.869-5.858-5.878-15.364-0.02-21.233l12.375-12.397
									l21.253,21.214l-12.375,12.397C392.161,287.299,382.655,287.308,376.786,281.45z"/>
								<path style="fill:#F9B1A5;" d="M385.648,256.385L385.648,256.385c-1.498-1.475-1.517-3.884-0.043-5.383l19.375-19.687
									c1.475-1.498,3.884-1.517,5.383-0.043l0,0c1.498,1.475,1.518,3.884,0.043,5.383l-19.375,19.687
									C389.556,257.84,387.147,257.859,385.648,256.385z"/>
								<path style="fill:#F9B1A5;" d="M376.865,268.868L376.865,268.868c-2.035-0.528-3.257-2.605-2.729-4.64l6.522-25.143
									c0.528-2.035,2.605-3.257,4.64-2.729l0,0c2.035,0.528,3.257,2.605,2.729,4.64l-6.522,25.143
									C380.977,268.174,378.899,269.396,376.865,268.868z"/>
								<path style="fill:#F9B1A5;" d="M391.491,262.135L391.491,262.135c-1.498-1.475-1.518-3.884-0.043-5.383l22.906-23.275
									c1.474-1.498,3.884-1.518,5.383-0.043l0,0c1.498,1.475,1.518,3.885,0.043,5.383l-22.906,23.275
									C395.4,263.591,392.99,263.61,391.491,262.135z"/>
								<path style="fill:#F9B1A5;" d="M397.335,267.886L397.335,267.886c-1.498-1.475-1.518-3.884-0.043-5.383l19.375-19.687
									c1.474-1.498,3.884-1.518,5.383-0.043l0,0c1.498,1.475,1.518,3.885,0.043,5.383l-19.375,19.687
									C401.243,269.341,398.833,269.36,397.335,267.886z"/>
								<path style="fill:#F9B1A5;" d="M402.552,273.02L402.552,273.02c-1.152-1.134-1.167-2.988-0.033-4.141l13.899-14.123
									c1.134-1.153,2.988-1.167,4.141-0.033l0,0c1.152,1.134,1.167,2.988,0.033,4.141l-13.899,14.123
									C405.558,274.14,403.704,274.154,402.552,273.02z"/>
							</g>
							<path style="fill:none;stroke:#FFFFFF;stroke-width:0.5;stroke-miterlimit:10;" d="M385.054,258.965
								c0.823,0.963,3.863,4.751,3.729,10.302c-0.095,3.902-1.711,6.728-2.513,7.946"/>
							
								<line style="fill:none;stroke:#FFFFFF;stroke-width:0.5;stroke-miterlimit:10;" x1="400.004" y1="275.374" x2="391.178" y2="260.087"/>
						</g>
						<path style="fill:none;stroke:#F99180;stroke-width:0.25;stroke-miterlimit:10;" d="M410.394,269.033l-12.375,12.397
							c-5.858,5.869-15.365,5.877-21.233,0.019"/>
					</g>
				</g>
				<path style="fill:#F9B1A5;" d="M364.657,401.849L364.657,401.849c-6.374,4.369-15.082,2.744-19.451-3.63l-58.02-84.642
					c-4.369-6.374-2.744-15.082,3.63-19.451l0,0c6.374-4.369,15.082-2.744,19.451,3.63l58.019,84.642
					C372.655,388.772,371.03,397.48,364.657,401.849z"/>
				<path style="fill:#FFFFFF;" d="M308.558,360.15l38.827-28.221l-31.161-42.872c-7.793-10.722-22.802-13.096-33.524-5.303l0,0
					c-10.722,7.793-13.096,22.802-5.303,33.524L308.558,360.15z"/>
			</g>
			<path style="fill:#FF9F43;" d="M302.79,385.54c-1.76,11.45-5.21,20.48-7.95,26.46h-79.56c-3.12-4.24-7.25-10.88-9.95-19.85
				c-5.05-16.79-1.95-31.38,0-41.9c3.01-16.25,6.34-39.37,7.96-70.57h81.55c2.95,30.33,5.47,54.92,7.95,74.98
				C303.54,360.73,304.94,371.59,302.79,385.54z"/>
			<path style="fill:#FFFFFF;" d="M256,279.68V282c0,5.52-4.48,10-10,10s-10-4.48-10-10v-2.32H256z"/>
			<path style="fill:#FFFFFF;" d="M276,279.68V282c0,5.52-4.48,10-10,10s-10-4.48-10-10v-2.32H276z"/>
			<g>
				<circle style="fill:#2F3542;" cx="229" cy="240" r="11"/>
				<circle style="fill:#7BED9F;" cx="229" cy="240" r="7"/>
				<path style="fill:none;stroke:#2F3542;stroke-miterlimit:10;" d="M230.331,248.824c1.829,1.96,4.327,3.902,7.669,5.176
					c8.548,3.258,15.891-0.421,17-1"/>
				<circle style="fill:#2F3542;" cx="255" cy="252" r="2"/>
			</g>
			<path style="fill:#2F3542;" d="M226.866,230.419C223.999,218.245,230.479,205.692,242,201
				c11.402-4.643,24.667-0.334,31.198,10.179C266.033,202.548,254.284,199.29,244,203
				C232.9,207.004,225.749,218.316,226.866,230.419z"/>
			<g>
				
					<rect x="374.008" y="219.619" transform="matrix(0.89 0.456 -0.456 0.89 153.2794 -156.898)" style="fill:#7BED9F;" width="55.5" height="39.102"/>
				<polygon style="fill:#FFA502;" points="401.953,239.271 386.931,209.604 434.809,234.138 				"/>
				<line style="fill:none;stroke:#222F3E;stroke-miterlimit:10;" x1="394.516" y1="240.433" x2="372.702" y2="243.841"/>
				<line style="fill:none;stroke:#222F3E;stroke-miterlimit:10;" x1="416.05" y1="267.107" x2="405.354" y2="245.987"/>
			</g>
			
				<rect x="212.333" y="343.439" transform="matrix(-0.7071 -0.7071 0.7071 -0.7071 128.1871 757.0968)" style="fill:#F7882D;" width="17.121" height="17.121"/>
			
				<rect x="244.333" y="343.439" transform="matrix(-0.7071 -0.7071 0.7071 -0.7071 182.8146 779.7242)" style="fill:#F7882D;" width="17.121" height="17.121"/>
			
				<rect x="276.333" y="343.439" transform="matrix(-0.7071 -0.7071 0.7071 -0.7071 237.442 802.3516)" style="fill:#F7882D;" width="17.121" height="17.121"/>
		</g>
	</g>
	<g>
		<g>
			<path style="fill:#131E21;" d="M384.112,412.127H257.681l0,0c0-4.013,3.253-7.266,7.266-7.266h119.165V412.127z"/>
			<path style="fill:#222F3E;" d="M447.624,412.127H329.743c8.459-28.987,16.917-57.973,25.376-86.96c39.293,0,78.587,0,117.881,0
				C464.541,354.154,456.083,383.14,447.624,412.127z"/>
			
				<ellipse transform="matrix(0.231 -0.973 0.973 0.231 -48.9897 682.0759)" style="fill:#FFFFFF;" cx="406.999" cy="372.03" rx="12.747" ry="12.747"/>
		</g>
		<g>
			<g>
				<ellipse style="fill:#7BED9F;" cx="70.483" cy="331.609" rx="15.831" ry="40.593"/>
				
					<ellipse transform="matrix(0.7425 -0.6699 0.6699 0.7425 -220.0058 131.9385)" style="fill:#7BED9F;" cx="61.594" cy="352.106" rx="15.621" ry="23.434"/>
				
					<ellipse transform="matrix(0.5939 -0.8045 0.8045 0.5939 -243.4021 208.5816)" style="fill:#7BED9F;" cx="84.913" cy="345.396" rx="31.778" ry="16.518"/>
			</g>
			<g>
				<path style="fill:none;stroke:#000000;stroke-miterlimit:10;" d="M80.774,324.849c-1.73,1.918-8.128,9.468-8.395,21.038
					c-0.288,12.514,6.804,20.772,8.395,22.538"/>
				<circle style="fill:none;stroke:#000000;stroke-miterlimit:10;" cx="85" cy="316" r="9.5"/>
			</g>
			<g>
				<path style="fill:none;stroke:#000000;stroke-miterlimit:10;" d="M53.026,337.795c1.927,3.161,4.48,8.179,5.905,14.798
					c1.424,6.614,1.163,12.234,0.709,15.907"/>
				<path style="fill:none;stroke:#000000;stroke-miterlimit:10;" d="M43.37,331.57c0,3.691,2.992,6.682,6.682,6.682
					c3.691,0,6.682-2.992,6.682-6.682c0-3.691-2.992-6.682-6.682-6.682C46.362,324.888,43.37,327.88,43.37,331.57z"/>
			</g>
			<g>
				<path style="fill:none;stroke:#000000;stroke-miterlimit:10;" d="M58.338,303.515c3.005,7.06,6.031,15.78,8.162,25.985
					c3.215,15.391,3.287,28.853,2.532,38.907"/>
				
					<ellipse transform="matrix(0.9871 -0.1602 0.1602 0.9871 -46.499 12.8688)" style="fill:none;stroke:#000000;stroke-miterlimit:10;" cx="56.57" cy="294.847" rx="8.93" ry="8.93"/>
			</g>
			<g>
				<path style="fill:#FF4757;" d="M77.825,412.5H63.722c-5.365,0-9.715-4.349-9.715-9.715V373.22h33.532v29.566
					C87.539,408.151,83.19,412.5,77.825,412.5z"/>
				<rect x="49.5" y="368.424" style="fill:#FF4757;" width="42.5" height="11.591"/>
				<polygon style="fill:#222F3E;" points="54.008,387.093 87.539,380.015 54.008,380.015 				"/>
			</g>
		</g>
		<rect x="37.5" y="412.5" style="fill:#FFFFFF;stroke:#000000;stroke-miterlimit:10;" width="412" height="11"/>
	</g>
	<path style="fill:#F9B1A5;" d="M376.966,268.669L376.966,268.669c-2.035-0.528-3.257-2.605-2.729-4.64l6.522-25.143
		c0.528-2.035,2.605-3.256,4.64-2.729l0,0c2.035,0.528,3.256,2.605,2.729,4.64l-6.522,25.143
		C381.078,267.975,379.001,269.197,376.966,268.669z"/>
</g>
</svg>
